<svg id="Layer_1" data-name="Layer 1" xmlns="http://www.w3.org/2000/svg" xmlns:xlink="http://www.w3.org/1999/xlink" viewBox="0 0 550 550"><defs><style>.cls-1{fill:#6b0039;}.cls-2{fill:#6b3600;}.cls-3{fill:#6b0000;}.cls-4{fill:#376b00;}.cls-5{fill:#6b6b00;}.cls-6{fill:#6b006b;}.cls-7{fill:#006b6b;}.cls-8{fill:#006b36;}.cls-9{fill:#006b00;}.cls-10{fill:#00396b;}.cls-11{fill:#34006b;}.cls-12{fill:#00006b;}.cls-13{fill:red;}.cls-14{fill:#b30000;}.cls-15{fill:#f0f;}.cls-16{fill:#b300b2;}.cls-17{fill:#ff0;}.cls-18{fill:#b2b300;}.cls-19{fill:#ff7f00;}.cls-20{fill:#b35900;}.cls-21{fill:#7c00ff;}.cls-22{fill:#5600b3;}.cls-23{fill:#ff0086;}.cls-24{fill:#b3005f;}.cls-25{fill:url(#linear-gradient);}.cls-26{fill:#00b359;}.cls-27{fill:url(#linear-gradient-2);}.cls-28{fill:#00b300;}.cls-29{fill:blue;}.cls-30{fill:#0000b3;}.cls-31{fill:#83ff00;}.cls-32{fill:#5cb300;}.cls-33{fill:url(#linear-gradient-3);}.cls-34{fill:#005fb3;}.cls-35{fill:url(#linear-gradient-4);}.cls-36{fill:#00b2b3;}.cls-37{fill:url(#linear-gradient-5);}.cls-38{fill:url(#linear-gradient-6);}.cls-39{fill:lime;}.cls-40{fill:url(#linear-gradient-7);}.cls-41{fill:url(#linear-gradient-8);}.cls-42{fill:#00ff7f;}.cls-43{fill:url(#linear-gradient-9);}.cls-44{fill:url(#linear-gradient-10);}.cls-45{fill:aqua;}.cls-46{fill:url(#linear-gradient-11);}.cls-47{fill:url(#linear-gradient-12);}.cls-48{fill:#0086ff;}.cls-49{fill:#4747ff;}.cls-50{fill:#a047ff;}.cls-51{fill:url(#linear-gradient-13);}.cls-52{fill:url(#linear-gradient-14);}.cls-53{fill:url(#linear-gradient-15);}.cls-54{fill:#47a9ff;}.cls-55{fill:#ff4747;}.cls-56{fill:#ff47a9;}.cls-57{fill:#ff47ff;}.cls-58{fill:#ffff47;}.cls-59{fill:#a6ff47;}.cls-60{fill:#ffa347;}.cls-61{fill:url(#linear-gradient-17);}.cls-62{fill:url(#linear-gradient-18);}.cls-63{fill:#47ffff;}.cls-64{fill:url(#linear-gradient-19);}.cls-65{fill:url(#linear-gradient-20);}.cls-66{fill:url(#linear-gradient-21);}.cls-67{fill:#47ffa3;}.cls-68{fill:url(#linear-gradient-22);}.cls-69{fill:url(#linear-gradient-23);}.cls-70{fill:url(#linear-gradient-24);}.cls-71{fill:#47ff47;}.cls-72{fill:#c58fff;}.cls-73{fill:#8f8fff;}.cls-74{fill:url(#linear-gradient-25);}.cls-75{fill:url(#linear-gradient-26);}.cls-76{fill:url(#linear-gradient-27);}.cls-77{fill:url(#linear-gradient-28);}.cls-78{fill:#8fcbff;}.cls-79{fill:url(#linear-gradient-31);}.cls-80{fill:url(#linear-gradient-32);}.cls-81{fill:#8fffff;}.cls-82{fill:#ff8fcb;}.cls-83{fill:#ff8fff;}.cls-84{fill:#ff8f8f;}.cls-85{fill:#ffff8f;}.cls-86{fill:#ffc78f;}.cls-87{fill:url(#linear-gradient-33);}.cls-88{fill:url(#linear-gradient-34);}.cls-89{fill:url(#linear-gradient-35);}.cls-90{fill:url(#linear-gradient-36);}.cls-91{fill:#8fffc7;}.cls-92{fill:url(#linear-gradient-37);}.cls-93{fill:url(#linear-gradient-38);}.cls-94{fill:url(#linear-gradient-39);}.cls-95{fill:url(#linear-gradient-40);}.cls-96{fill:#8fff8f;}.cls-97{fill:#c9ff8f;}</style><linearGradient id="linear-gradient" x1="377.2" y1="550" x2="377.2" gradientUnits="userSpaceOnUse"><stop offset="0" stop-color="#656565"/><stop offset="0.62" stop-color="#1b1b1b"/><stop offset="0.63" stop-color="#545454"/><stop offset="0.98" stop-color="#3e3e3e"/></linearGradient><linearGradient id="linear-gradient-2" x1="445.56" y1="550" x2="445.56" y2="0" xlink:href="#linear-gradient"/><linearGradient id="linear-gradient-3" x1="172.8" y1="550" x2="172.8" y2="0" xlink:href="#linear-gradient"/><linearGradient id="linear-gradient-4" x1="275" y1="550" x2="275" y2="0" xlink:href="#linear-gradient"/><linearGradient id="linear-gradient-5" x1="403.73" y1="550" x2="403.73" y2="0" xlink:href="#linear-gradient"/><linearGradient id="linear-gradient-6" x1="403.73" y1="500" x2="403.73" y2="50" xlink:href="#linear-gradient"/><linearGradient id="linear-gradient-7" x1="353.05" y1="550" x2="353.05" y2="0" xlink:href="#linear-gradient"/><linearGradient id="linear-gradient-8" x1="353.05" y1="500" x2="353.05" y2="50" xlink:href="#linear-gradient"/><linearGradient id="linear-gradient-9" x1="275" y1="550" x2="275" y2="0" xlink:href="#linear-gradient"/><linearGradient id="linear-gradient-10" x1="275" y1="500" x2="275" y2="50" xlink:href="#linear-gradient"/><linearGradient id="linear-gradient-11" x1="196.95" y1="550" x2="196.95" y2="0" xlink:href="#linear-gradient"/><linearGradient id="linear-gradient-12" x1="196.95" y1="500" x2="196.95" y2="50" xlink:href="#linear-gradient"/><linearGradient id="linear-gradient-13" x1="221.1" y1="550" x2="221.1" y2="0" xlink:href="#linear-gradient"/><linearGradient id="linear-gradient-14" x1="221.1" y1="500" x2="221.1" y2="50" xlink:href="#linear-gradient"/><linearGradient id="linear-gradient-15" x1="221.1" y1="450" x2="221.1" y2="100" xlink:href="#linear-gradient"/><linearGradient id="linear-gradient-17" x1="275" y1="500" x2="275" y2="50" xlink:href="#linear-gradient"/><linearGradient id="linear-gradient-18" x1="275" y1="450" x2="275" y2="100" xlink:href="#linear-gradient"/><linearGradient id="linear-gradient-19" x1="328.9" y1="550" x2="328.9" y2="0" xlink:href="#linear-gradient"/><linearGradient id="linear-gradient-20" x1="328.9" y1="500" x2="328.9" y2="50" xlink:href="#linear-gradient"/><linearGradient id="linear-gradient-21" x1="328.9" y1="450" x2="328.9" y2="100" xlink:href="#linear-gradient"/><linearGradient id="linear-gradient-22" x1="361.9" y1="550" x2="361.9" y2="0" xlink:href="#linear-gradient"/><linearGradient id="linear-gradient-23" x1="361.9" y1="500" x2="361.9" y2="50" xlink:href="#linear-gradient"/><linearGradient id="linear-gradient-24" x1="361.9" y1="450" x2="361.9" y2="100" xlink:href="#linear-gradient"/><linearGradient id="linear-gradient-25" x1="245.25" y1="550" x2="245.25" y2="0" xlink:href="#linear-gradient"/><linearGradient id="linear-gradient-26" x1="245.25" y1="500" x2="245.25" y2="50" xlink:href="#linear-gradient"/><linearGradient id="linear-gradient-27" x1="245.25" y1="450" x2="245.25" y2="100" xlink:href="#linear-gradient"/><linearGradient id="linear-gradient-28" x1="245.25" y1="400" x2="245.25" y2="150" xlink:href="#linear-gradient"/><linearGradient id="linear-gradient-31" x1="275" y1="450" x2="275" y2="100" xlink:href="#linear-gradient"/><linearGradient id="linear-gradient-32" x1="275" y1="400" x2="275" y2="150" xlink:href="#linear-gradient"/><linearGradient id="linear-gradient-33" x1="304.75" y1="550" x2="304.75" y2="0" xlink:href="#linear-gradient"/><linearGradient id="linear-gradient-34" x1="304.75" y1="500" x2="304.75" y2="50" xlink:href="#linear-gradient"/><linearGradient id="linear-gradient-35" x1="304.75" y1="450" x2="304.75" y2="100" xlink:href="#linear-gradient"/><linearGradient id="linear-gradient-36" x1="304.75" y1="400" x2="304.75" y2="150" xlink:href="#linear-gradient"/><linearGradient id="linear-gradient-37" x1="320.06" y1="550" x2="320.06" y2="0" xlink:href="#linear-gradient"/><linearGradient id="linear-gradient-38" x1="320.06" y1="500" x2="320.06" y2="50" xlink:href="#linear-gradient"/><linearGradient id="linear-gradient-39" x1="320.06" y1="450" x2="320.06" y2="100" xlink:href="#linear-gradient"/><linearGradient id="linear-gradient-40" x1="320.06" y1="400" x2="320.06" y2="150" xlink:href="#linear-gradient"/></defs><path class="cls-1" d="M216.76,57.63,203.81,9.32A274.69,274.69,0,0,0,80.55,80.55L115.9,115.9A224.81,224.81,0,0,1,216.76,57.63Z"/><path class="cls-2" d="M434.1,115.9l35.35-35.35A274.69,274.69,0,0,0,346.19,9.32L333.24,57.63A224.81,224.81,0,0,1,434.1,115.9Z"/><path class="cls-3" d="M275,50a225,225,0,0,1,58.24,7.63L346.19,9.32a276.55,276.55,0,0,0-142.38,0l12.95,48.31A225,225,0,0,1,275,50Z"/><path class="cls-4" d="M500,275a225,225,0,0,1-7.63,58.24l48.31,12.95a276.55,276.55,0,0,0,0-142.38l-48.31,12.95A225,225,0,0,1,500,275Z"/><path class="cls-5" d="M492.37,216.76l48.31-12.95A274.69,274.69,0,0,0,469.45,80.55L434.1,115.9A224.81,224.81,0,0,1,492.37,216.76Z"/><path class="cls-6" d="M115.9,115.9,80.55,80.55A274.69,274.69,0,0,0,9.32,203.81l48.31,12.95A224.81,224.81,0,0,1,115.9,115.9Z"/><path class="cls-7" d="M275,500a225,225,0,0,1-58.24-7.63l-12.95,48.31a276.55,276.55,0,0,0,142.38,0l-12.95-48.31A225,225,0,0,1,275,500Z"/><path class="cls-8" d="M333.24,492.37l12.95,48.31a274.69,274.69,0,0,0,123.26-71.23L434.1,434.1A224.81,224.81,0,0,1,333.24,492.37Z"/><path class="cls-9" d="M540.68,346.19l-48.31-12.95A224.81,224.81,0,0,1,434.1,434.1l35.35,35.35A274.69,274.69,0,0,0,540.68,346.19Z"/><path class="cls-10" d="M115.9,434.1,80.55,469.45a274.69,274.69,0,0,0,123.26,71.23l12.95-48.31A224.81,224.81,0,0,1,115.9,434.1Z"/><path class="cls-11" d="M50,275a225,225,0,0,1,7.63-58.24L9.32,203.81a276.55,276.55,0,0,0,0,142.38l48.31-12.95A225,225,0,0,1,50,275Z"/><path class="cls-12" d="M57.63,333.24,9.32,346.19A274.69,274.69,0,0,0,80.55,469.45L115.9,434.1A224.81,224.81,0,0,1,57.63,333.24Z"/><path class="cls-13" d="M275,100a175.29,175.29,0,0,1,45.3,5.93l12.94-48.3a226.09,226.09,0,0,0-116.48,0l12.94,48.3A175.29,175.29,0,0,1,275,100Z"/><path class="cls-14" d="M275,100a175.29,175.29,0,0,1,45.3,5.93l12.94-48.3a226.09,226.09,0,0,0-116.48,0l12.94,48.3A175.29,175.29,0,0,1,275,100Z"/><path class="cls-15" d="M151.26,151.26,115.9,115.9A224.81,224.81,0,0,0,57.63,216.76l48.3,12.94A174.81,174.81,0,0,1,151.26,151.26Z"/><path class="cls-16" d="M151.26,151.26,115.9,115.9A224.81,224.81,0,0,0,57.63,216.76l48.3,12.94A174.81,174.81,0,0,1,151.26,151.26Z"/><path class="cls-17" d="M444.07,229.7l48.3-12.94A224.81,224.81,0,0,0,434.1,115.9l-35.36,35.36A174.81,174.81,0,0,1,444.07,229.7Z"/><path class="cls-18" d="M444.07,229.7l48.3-12.94A224.81,224.81,0,0,0,434.1,115.9l-35.36,35.36A174.81,174.81,0,0,1,444.07,229.7Z"/><path class="cls-19" d="M398.74,151.26,434.1,115.9A224.81,224.81,0,0,0,333.24,57.63l-12.94,48.3A174.81,174.81,0,0,1,398.74,151.26Z"/><path class="cls-20" d="M398.74,151.26,434.1,115.9A224.81,224.81,0,0,0,333.24,57.63l-12.94,48.3A174.81,174.81,0,0,1,398.74,151.26Z"/><path class="cls-21" d="M100,275a175.29,175.29,0,0,1,5.93-45.3l-48.3-12.94a226.09,226.09,0,0,0,0,116.48l48.3-12.94A175.29,175.29,0,0,1,100,275Z"/><path class="cls-22" d="M100,275a175.29,175.29,0,0,1,5.93-45.3l-48.3-12.94a226.09,226.09,0,0,0,0,116.48l48.3-12.94A175.29,175.29,0,0,1,100,275Z"/><path class="cls-23" d="M229.7,105.93l-12.94-48.3A224.81,224.81,0,0,0,115.9,115.9l35.36,35.36A174.81,174.81,0,0,1,229.7,105.93Z"/><path class="cls-24" d="M229.7,105.93l-12.94-48.3A224.81,224.81,0,0,0,115.9,115.9l35.36,35.36A174.81,174.81,0,0,1,229.7,105.93Z"/><path class="cls-25" d="M320.3,444.07l12.94,48.3A224.81,224.81,0,0,0,434.1,434.1l-35.36-35.36A174.81,174.81,0,0,1,320.3,444.07Z"/><path class="cls-26" d="M320.3,444.07l12.94,48.3A224.81,224.81,0,0,0,434.1,434.1l-35.36-35.36A174.81,174.81,0,0,1,320.3,444.07Z"/><path class="cls-27" d="M398.74,398.74,434.1,434.1a224.81,224.81,0,0,0,58.27-100.86l-48.3-12.94A174.81,174.81,0,0,1,398.74,398.74Z"/><path class="cls-28" d="M398.74,398.74,434.1,434.1a224.81,224.81,0,0,0,58.27-100.86l-48.3-12.94A174.81,174.81,0,0,1,398.74,398.74Z"/><path class="cls-29" d="M105.93,320.3l-48.3,12.94A224.81,224.81,0,0,0,115.9,434.1l35.36-35.36A174.81,174.81,0,0,1,105.93,320.3Z"/><path class="cls-30" d="M105.93,320.3l-48.3,12.94A224.81,224.81,0,0,0,115.9,434.1l35.36-35.36A174.81,174.81,0,0,1,105.93,320.3Z"/><path class="cls-31" d="M492.37,216.76l-48.3,12.94a176,176,0,0,1,0,90.6l48.3,12.94a226.09,226.09,0,0,0,0-116.48Z"/><path class="cls-32" d="M492.37,216.76l-48.3,12.94a176,176,0,0,1,0,90.6l48.3,12.94a226.09,226.09,0,0,0,0-116.48Z"/><path class="cls-33" d="M151.26,398.74,115.9,434.1a224.81,224.81,0,0,0,100.86,58.27l12.94-48.3A174.81,174.81,0,0,1,151.26,398.74Z"/><path class="cls-34" d="M151.26,398.74,115.9,434.1a224.81,224.81,0,0,0,100.86,58.27l12.94-48.3A174.81,174.81,0,0,1,151.26,398.74Z"/><path class="cls-35" d="M275,450a175.29,175.29,0,0,1-45.3-5.93l-12.94,48.3a226.09,226.09,0,0,0,116.48,0l-12.94-48.3A175.29,175.29,0,0,1,275,450Z"/><path class="cls-36" d="M275,450a175.29,175.29,0,0,1-45.3-5.93l-12.94,48.3a226.09,226.09,0,0,0,116.48,0l-12.94-48.3A175.29,175.29,0,0,1,275,450Z"/><path class="cls-13" d="M275,150a125.11,125.11,0,0,1,32.36,4.24l12.94-48.31a176,176,0,0,0-90.6,0l12.94,48.31A125.11,125.11,0,0,1,275,150Z"/><path class="cls-13" d="M275,150a125.11,125.11,0,0,1,32.36,4.24l12.94-48.31a176,176,0,0,0-90.6,0l12.94,48.31A125.11,125.11,0,0,1,275,150Z"/><path class="cls-13" d="M275,150a125.11,125.11,0,0,1,32.36,4.24l12.94-48.31a176,176,0,0,0-90.6,0l12.94,48.31A125.11,125.11,0,0,1,275,150Z"/><path class="cls-15" d="M186.61,186.61l-35.35-35.35a174.81,174.81,0,0,0-45.33,78.44l48.31,12.94A125,125,0,0,1,186.61,186.61Z"/><path class="cls-15" d="M186.61,186.61l-35.35-35.35a174.81,174.81,0,0,0-45.33,78.44l48.31,12.94A125,125,0,0,1,186.61,186.61Z"/><path class="cls-15" d="M186.61,186.61l-35.35-35.35a174.81,174.81,0,0,0-45.33,78.44l48.31,12.94A125,125,0,0,1,186.61,186.61Z"/><path class="cls-21" d="M150,275a125.11,125.11,0,0,1,4.24-32.36L105.93,229.7a176,176,0,0,0,0,90.6l48.31-12.94A125.11,125.11,0,0,1,150,275Z"/><path class="cls-21" d="M150,275a125.11,125.11,0,0,1,4.24-32.36L105.93,229.7a176,176,0,0,0,0,90.6l48.31-12.94A125.11,125.11,0,0,1,150,275Z"/><path class="cls-21" d="M150,275a125.11,125.11,0,0,1,4.24-32.36L105.93,229.7a176,176,0,0,0,0,90.6l48.31-12.94A125.11,125.11,0,0,1,150,275Z"/><path class="cls-29" d="M154.24,307.36,105.93,320.3a174.81,174.81,0,0,0,45.33,78.44l35.35-35.35A125,125,0,0,1,154.24,307.36Z"/><path class="cls-29" d="M154.24,307.36,105.93,320.3a174.81,174.81,0,0,0,45.33,78.44l35.35-35.35A125,125,0,0,1,154.24,307.36Z"/><path class="cls-29" d="M154.24,307.36,105.93,320.3a174.81,174.81,0,0,0,45.33,78.44l35.35-35.35A125,125,0,0,1,154.24,307.36Z"/><path class="cls-19" d="M363.39,186.61l35.35-35.35a174.81,174.81,0,0,0-78.44-45.33l-12.94,48.31A125,125,0,0,1,363.39,186.61Z"/><path class="cls-19" d="M363.39,186.61l35.35-35.35a174.81,174.81,0,0,0-78.44-45.33l-12.94,48.31A125,125,0,0,1,363.39,186.61Z"/><path class="cls-19" d="M363.39,186.61l35.35-35.35a174.81,174.81,0,0,0-78.44-45.33l-12.94,48.31A125,125,0,0,1,363.39,186.61Z"/><path class="cls-23" d="M242.64,154.24,229.7,105.93a174.81,174.81,0,0,0-78.44,45.33l35.35,35.35A125,125,0,0,1,242.64,154.24Z"/><path class="cls-23" d="M242.64,154.24,229.7,105.93a174.81,174.81,0,0,0-78.44,45.33l35.35,35.35A125,125,0,0,1,242.64,154.24Z"/><path class="cls-23" d="M242.64,154.24,229.7,105.93a174.81,174.81,0,0,0-78.44,45.33l35.35,35.35A125,125,0,0,1,242.64,154.24Z"/><path class="cls-37" d="M363.39,363.39l35.35,35.35a174.81,174.81,0,0,0,45.33-78.44l-48.31-12.94A125,125,0,0,1,363.39,363.39Z"/><path class="cls-38" d="M363.39,363.39l35.35,35.35a174.81,174.81,0,0,0,45.33-78.44l-48.31-12.94A125,125,0,0,1,363.39,363.39Z"/><path class="cls-39" d="M363.39,363.39l35.35,35.35a174.81,174.81,0,0,0,45.33-78.44l-48.31-12.94A125,125,0,0,1,363.39,363.39Z"/><path class="cls-31" d="M400,275a125.11,125.11,0,0,1-4.24,32.36l48.31,12.94a176,176,0,0,0,0-90.6l-48.31,12.94A125.11,125.11,0,0,1,400,275Z"/><path class="cls-31" d="M400,275a125.11,125.11,0,0,1-4.24,32.36l48.31,12.94a176,176,0,0,0,0-90.6l-48.31,12.94A125.11,125.11,0,0,1,400,275Z"/><path class="cls-31" d="M400,275a125.11,125.11,0,0,1-4.24,32.36l48.31,12.94a176,176,0,0,0,0-90.6l-48.31,12.94A125.11,125.11,0,0,1,400,275Z"/><path class="cls-17" d="M363.39,186.61a125,125,0,0,1,32.37,56l48.31-12.94a174.81,174.81,0,0,0-45.33-78.44Z"/><path class="cls-17" d="M363.39,186.61a125,125,0,0,1,32.37,56l48.31-12.94a174.81,174.81,0,0,0-45.33-78.44Z"/><path class="cls-17" d="M363.39,186.61a125,125,0,0,1,32.37,56l48.31-12.94a174.81,174.81,0,0,0-45.33-78.44Z"/><path class="cls-40" d="M307.36,395.76l12.94,48.31a174.81,174.81,0,0,0,78.44-45.33l-35.35-35.35A125,125,0,0,1,307.36,395.76Z"/><path class="cls-41" d="M307.36,395.76l12.94,48.31a174.81,174.81,0,0,0,78.44-45.33l-35.35-35.35A125,125,0,0,1,307.36,395.76Z"/><path class="cls-42" d="M307.36,395.76l12.94,48.31a174.81,174.81,0,0,0,78.44-45.33l-35.35-35.35A125,125,0,0,1,307.36,395.76Z"/><path class="cls-43" d="M275,400a125.11,125.11,0,0,1-32.36-4.24L229.7,444.07a176,176,0,0,0,90.6,0l-12.94-48.31A125.11,125.11,0,0,1,275,400Z"/><path class="cls-44" d="M275,400a125.11,125.11,0,0,1-32.36-4.24L229.7,444.07a176,176,0,0,0,90.6,0l-12.94-48.31A125.11,125.11,0,0,1,275,400Z"/><path class="cls-45" d="M275,400a125.11,125.11,0,0,1-32.36-4.24L229.7,444.07a176,176,0,0,0,90.6,0l-12.94-48.31A125.11,125.11,0,0,1,275,400Z"/><path class="cls-46" d="M186.61,363.39l-35.35,35.35a174.81,174.81,0,0,0,78.44,45.33l12.94-48.31A125,125,0,0,1,186.61,363.39Z"/><path class="cls-47" d="M186.61,363.39l-35.35,35.35a174.81,174.81,0,0,0,78.44,45.33l12.94-48.31A125,125,0,0,1,186.61,363.39Z"/><path class="cls-48" d="M186.61,363.39l-35.35,35.35a174.81,174.81,0,0,0,78.44,45.33l12.94-48.31A125,125,0,0,1,186.61,363.39Z"/><path class="cls-29" d="M202.55,294.41l-48.31,12.95a125,125,0,0,0,32.37,56L222,328A74.91,74.91,0,0,1,202.55,294.41Z"/><path class="cls-29" d="M202.55,294.41l-48.31,12.95a125,125,0,0,0,32.37,56L222,328A74.91,74.91,0,0,1,202.55,294.41Z"/><path class="cls-29" d="M202.55,294.41l-48.31,12.95a125,125,0,0,0,32.37,56L222,328A74.91,74.91,0,0,1,202.55,294.41Z"/><path class="cls-49" d="M202.55,294.41l-48.31,12.95a125,125,0,0,0,32.37,56L222,328A74.91,74.91,0,0,1,202.55,294.41Z"/><path class="cls-21" d="M200,275a75.24,75.24,0,0,1,2.55-19.41l-48.31-13a125.61,125.61,0,0,0,0,64.72l48.31-12.95A75.24,75.24,0,0,1,200,275Z"/><path class="cls-21" d="M200,275a75.24,75.24,0,0,1,2.55-19.41l-48.31-13a125.61,125.61,0,0,0,0,64.72l48.31-12.95A75.24,75.24,0,0,1,200,275Z"/><path class="cls-21" d="M200,275a75.24,75.24,0,0,1,2.55-19.41l-48.31-13a125.61,125.61,0,0,0,0,64.72l48.31-12.95A75.24,75.24,0,0,1,200,275Z"/><path class="cls-50" d="M200,275a75.24,75.24,0,0,1,2.55-19.41l-48.31-13a125.61,125.61,0,0,0,0,64.72l48.31-12.95A75.24,75.24,0,0,1,200,275Z"/><path class="cls-51" d="M222,328l-35.36,35.36a125,125,0,0,0,56,32.37l13-48.31A74.91,74.91,0,0,1,222,328Z"/><path class="cls-52" d="M222,328l-35.36,35.36a125,125,0,0,0,56,32.37l13-48.31A74.91,74.91,0,0,1,222,328Z"/><path class="cls-53" d="M222,328l-35.36,35.36a125,125,0,0,0,56,32.37l13-48.31A74.91,74.91,0,0,1,222,328Z"/><path class="cls-54" d="M222,328l-35.36,35.36a125,125,0,0,0,56,32.37l13-48.31A74.91,74.91,0,0,1,222,328Z"/><path class="cls-13" d="M275,200a75.24,75.24,0,0,1,19.41,2.55l12.95-48.31a125.61,125.61,0,0,0-64.72,0l13,48.31A75.24,75.24,0,0,1,275,200Z"/><path class="cls-13" d="M275,200a75.24,75.24,0,0,1,19.41,2.55l12.95-48.31a125.61,125.61,0,0,0-64.72,0l13,48.31A75.24,75.24,0,0,1,275,200Z"/><path class="cls-13" d="M275,200a75.24,75.24,0,0,1,19.41,2.55l12.95-48.31a125.61,125.61,0,0,0-64.72,0l13,48.31A75.24,75.24,0,0,1,275,200Z"/><path class="cls-55" d="M275,200a75.24,75.24,0,0,1,19.41,2.55l12.95-48.31a125.61,125.61,0,0,0-64.72,0l13,48.31A75.24,75.24,0,0,1,275,200Z"/><path class="cls-23" d="M255.59,202.55l-13-48.31a125,125,0,0,0-56,32.37L222,222A74.91,74.91,0,0,1,255.59,202.55Z"/><path class="cls-23" d="M255.59,202.55l-13-48.31a125,125,0,0,0-56,32.37L222,222A74.91,74.91,0,0,1,255.59,202.55Z"/><path class="cls-23" d="M255.59,202.55l-13-48.31a125,125,0,0,0-56,32.37L222,222A74.91,74.91,0,0,1,255.59,202.55Z"/><path class="cls-56" d="M255.59,202.55l-13-48.31a125,125,0,0,0-56,32.37L222,222A74.91,74.91,0,0,1,255.59,202.55Z"/><path class="cls-15" d="M222,222l-35.36-35.36a125,125,0,0,0-32.37,56l48.31,13A74.91,74.91,0,0,1,222,222Z"/><path class="cls-15" d="M222,222l-35.36-35.36a125,125,0,0,0-32.37,56l48.31,13A74.91,74.91,0,0,1,222,222Z"/><path class="cls-15" d="M222,222l-35.36-35.36a125,125,0,0,0-32.37,56l48.31,13A74.91,74.91,0,0,1,222,222Z"/><path class="cls-57" d="M222,222l-35.36-35.36a125,125,0,0,0-32.37,56l48.31,13A74.91,74.91,0,0,1,222,222Z"/><path class="cls-17" d="M347.45,255.59l48.31-13a125,125,0,0,0-32.37-56L328,222A74.91,74.91,0,0,1,347.45,255.59Z"/><path class="cls-17" d="M347.45,255.59l48.31-13a125,125,0,0,0-32.37-56L328,222A74.91,74.91,0,0,1,347.45,255.59Z"/><path class="cls-17" d="M347.45,255.59l48.31-13a125,125,0,0,0-32.37-56L328,222A74.91,74.91,0,0,1,347.45,255.59Z"/><path class="cls-58" d="M347.45,255.59l48.31-13a125,125,0,0,0-32.37-56L328,222A74.91,74.91,0,0,1,347.45,255.59Z"/><path class="cls-31" d="M350,275a75.24,75.24,0,0,1-2.55,19.41l48.31,12.95a125.61,125.61,0,0,0,0-64.72l-48.31,13A75.24,75.24,0,0,1,350,275Z"/><path class="cls-31" d="M350,275a75.24,75.24,0,0,1-2.55,19.41l48.31,12.95a125.61,125.61,0,0,0,0-64.72l-48.31,13A75.24,75.24,0,0,1,350,275Z"/><path class="cls-31" d="M350,275a75.24,75.24,0,0,1-2.55,19.41l48.31,12.95a125.61,125.61,0,0,0,0-64.72l-48.31,13A75.24,75.24,0,0,1,350,275Z"/><path class="cls-59" d="M350,275a75.24,75.24,0,0,1-2.55,19.41l48.31,12.95a125.61,125.61,0,0,0,0-64.72l-48.31,13A75.24,75.24,0,0,1,350,275Z"/><path class="cls-19" d="M307.36,154.24l-12.95,48.31A74.91,74.91,0,0,1,328,222l35.36-35.36A125,125,0,0,0,307.36,154.24Z"/><path class="cls-19" d="M307.36,154.24l-12.95,48.31A74.91,74.91,0,0,1,328,222l35.36-35.36A125,125,0,0,0,307.36,154.24Z"/><path class="cls-19" d="M307.36,154.24l-12.95,48.31A74.91,74.91,0,0,1,328,222l35.36-35.36A125,125,0,0,0,307.36,154.24Z"/><path class="cls-60" d="M307.36,154.24l-12.95,48.31A74.91,74.91,0,0,1,328,222l35.36-35.36A125,125,0,0,0,307.36,154.24Z"/><path class="cls-35" d="M275,350a75.24,75.24,0,0,1-19.41-2.55l-13,48.31a125.61,125.61,0,0,0,64.72,0l-12.95-48.31A75.24,75.24,0,0,1,275,350Z"/><path class="cls-61" d="M275,350a75.24,75.24,0,0,1-19.41-2.55l-13,48.31a125.61,125.61,0,0,0,64.72,0l-12.95-48.31A75.24,75.24,0,0,1,275,350Z"/><path class="cls-62" d="M275,350a75.24,75.24,0,0,1-19.41-2.55l-13,48.31a125.61,125.61,0,0,0,64.72,0l-12.95-48.31A75.24,75.24,0,0,1,275,350Z"/><path class="cls-63" d="M275,350a75.24,75.24,0,0,1-19.41-2.55l-13,48.31a125.61,125.61,0,0,0,64.72,0l-12.95-48.31A75.24,75.24,0,0,1,275,350Z"/><path class="cls-64" d="M294.41,347.45l12.95,48.31a125,125,0,0,0,56-32.37L328,328A74.91,74.91,0,0,1,294.41,347.45Z"/><path class="cls-65" d="M294.41,347.45l12.95,48.31a125,125,0,0,0,56-32.37L328,328A74.91,74.91,0,0,1,294.41,347.45Z"/><path class="cls-66" d="M294.41,347.45l12.95,48.31a125,125,0,0,0,56-32.37L328,328A74.91,74.91,0,0,1,294.41,347.45Z"/><path class="cls-67" d="M294.41,347.45l12.95,48.31a125,125,0,0,0,56-32.37L328,328A74.91,74.91,0,0,1,294.41,347.45Z"/><path class="cls-68" d="M328,328l35.36,35.36a125,125,0,0,0,32.37-56l-48.31-12.95A74.91,74.91,0,0,1,328,328Z"/><path class="cls-69" d="M328,328l35.36,35.36a125,125,0,0,0,32.37-56l-48.31-12.95A74.91,74.91,0,0,1,328,328Z"/><path class="cls-70" d="M328,328l35.36,35.36a125,125,0,0,0,32.37-56l-48.31-12.95A74.91,74.91,0,0,1,328,328Z"/><path class="cls-71" d="M328,328l35.36,35.36a125,125,0,0,0,32.37-56l-48.31-12.95A74.91,74.91,0,0,1,328,328Z"/><path class="cls-21" d="M250,275a25.06,25.06,0,0,1,.85-6.47l-48.3-12.94a75.15,75.15,0,0,0,0,38.82l48.3-12.94A25.06,25.06,0,0,1,250,275Z"/><path class="cls-21" d="M250,275a25.06,25.06,0,0,1,.85-6.47l-48.3-12.94a75.15,75.15,0,0,0,0,38.82l48.3-12.94A25.06,25.06,0,0,1,250,275Z"/><path class="cls-21" d="M250,275a25.06,25.06,0,0,1,.85-6.47l-48.3-12.94a75.15,75.15,0,0,0,0,38.82l48.3-12.94A25.06,25.06,0,0,1,250,275Z"/><path class="cls-21" d="M250,275a25.06,25.06,0,0,1,.85-6.47l-48.3-12.94a75.15,75.15,0,0,0,0,38.82l48.3-12.94A25.06,25.06,0,0,1,250,275Z"/><path class="cls-72" d="M250,275a25.06,25.06,0,0,1,.85-6.47l-48.3-12.94a75.15,75.15,0,0,0,0,38.82l48.3-12.94A25.06,25.06,0,0,1,250,275Z"/><path class="cls-29" d="M250.85,281.47l-48.3,12.94A74.91,74.91,0,0,0,222,328l35.35-35.35A25.07,25.07,0,0,1,250.85,281.47Z"/><path class="cls-29" d="M250.85,281.47l-48.3,12.94A74.91,74.91,0,0,0,222,328l35.35-35.35A25.07,25.07,0,0,1,250.85,281.47Z"/><path class="cls-29" d="M250.85,281.47l-48.3,12.94A74.91,74.91,0,0,0,222,328l35.35-35.35A25.07,25.07,0,0,1,250.85,281.47Z"/><path class="cls-29" d="M250.85,281.47l-48.3,12.94A74.91,74.91,0,0,0,222,328l35.35-35.35A25.07,25.07,0,0,1,250.85,281.47Z"/><path class="cls-73" d="M250.85,281.47l-48.3,12.94A74.91,74.91,0,0,0,222,328l35.35-35.35A25.07,25.07,0,0,1,250.85,281.47Z"/><path class="cls-74" d="M257.32,292.68,222,328a74.91,74.91,0,0,0,33.62,19.42l12.94-48.3A25.07,25.07,0,0,1,257.32,292.68Z"/><path class="cls-75" d="M257.32,292.68,222,328a74.91,74.91,0,0,0,33.62,19.42l12.94-48.3A25.07,25.07,0,0,1,257.32,292.68Z"/><path class="cls-76" d="M257.32,292.68,222,328a74.91,74.91,0,0,0,33.62,19.42l12.94-48.3A25.07,25.07,0,0,1,257.32,292.68Z"/><path class="cls-77" d="M257.32,292.68,222,328a74.91,74.91,0,0,0,33.62,19.42l12.94-48.3A25.07,25.07,0,0,1,257.32,292.68Z"/><path class="cls-78" d="M257.32,292.68,222,328a74.91,74.91,0,0,0,33.62,19.42l12.94-48.3A25.07,25.07,0,0,1,257.32,292.68Z"/><path class="cls-43" d="M275,300a25.06,25.06,0,0,1-6.47-.85l-12.94,48.3a75.15,75.15,0,0,0,38.82,0l-12.94-48.3A25.06,25.06,0,0,1,275,300Z"/><path class="cls-44" d="M275,300a25.06,25.06,0,0,1-6.47-.85l-12.94,48.3a75.15,75.15,0,0,0,38.82,0l-12.94-48.3A25.06,25.06,0,0,1,275,300Z"/><path class="cls-79" d="M275,300a25.06,25.06,0,0,1-6.47-.85l-12.94,48.3a75.15,75.15,0,0,0,38.82,0l-12.94-48.3A25.06,25.06,0,0,1,275,300Z"/><path class="cls-80" d="M275,300a25.06,25.06,0,0,1-6.47-.85l-12.94,48.3a75.15,75.15,0,0,0,38.82,0l-12.94-48.3A25.06,25.06,0,0,1,275,300Z"/><path class="cls-81" d="M275,300a25.06,25.06,0,0,1-6.47-.85l-12.94,48.3a75.15,75.15,0,0,0,38.82,0l-12.94-48.3A25.06,25.06,0,0,1,275,300Z"/><path class="cls-23" d="M268.53,250.85l-12.94-48.3A74.91,74.91,0,0,0,222,222l35.35,35.35A25.07,25.07,0,0,1,268.53,250.85Z"/><path class="cls-23" d="M268.53,250.85l-12.94-48.3A74.91,74.91,0,0,0,222,222l35.35,35.35A25.07,25.07,0,0,1,268.53,250.85Z"/><path class="cls-23" d="M268.53,250.85l-12.94-48.3A74.91,74.91,0,0,0,222,222l35.35,35.35A25.07,25.07,0,0,1,268.53,250.85Z"/><path class="cls-23" d="M268.53,250.85l-12.94-48.3A74.91,74.91,0,0,0,222,222l35.35,35.35A25.07,25.07,0,0,1,268.53,250.85Z"/><path class="cls-82" d="M268.53,250.85l-12.94-48.3A74.91,74.91,0,0,0,222,222l35.35,35.35A25.07,25.07,0,0,1,268.53,250.85Z"/><path class="cls-15" d="M257.32,257.32,222,222a74.91,74.91,0,0,0-19.42,33.62l48.3,12.94A25.07,25.07,0,0,1,257.32,257.32Z"/><path class="cls-15" d="M257.32,257.32,222,222a74.91,74.91,0,0,0-19.42,33.62l48.3,12.94A25.07,25.07,0,0,1,257.32,257.32Z"/><path class="cls-15" d="M257.32,257.32,222,222a74.91,74.91,0,0,0-19.42,33.62l48.3,12.94A25.07,25.07,0,0,1,257.32,257.32Z"/><path class="cls-15" d="M257.32,257.32,222,222a74.91,74.91,0,0,0-19.42,33.62l48.3,12.94A25.07,25.07,0,0,1,257.32,257.32Z"/><path class="cls-83" d="M257.32,257.32,222,222a74.91,74.91,0,0,0-19.42,33.62l48.3,12.94A25.07,25.07,0,0,1,257.32,257.32Z"/><path class="cls-13" d="M255.59,202.55l12.94,48.3a25,25,0,0,1,12.94,0l12.94-48.3a75.15,75.15,0,0,0-38.82,0Z"/><path class="cls-13" d="M255.59,202.55l12.94,48.3a25,25,0,0,1,12.94,0l12.94-48.3a75.15,75.15,0,0,0-38.82,0Z"/><path class="cls-13" d="M255.59,202.55l12.94,48.3a25,25,0,0,1,12.94,0l12.94-48.3a75.15,75.15,0,0,0-38.82,0Z"/><path class="cls-13" d="M255.59,202.55l12.94,48.3a25,25,0,0,1,12.94,0l12.94-48.3a75.15,75.15,0,0,0-38.82,0Z"/><path class="cls-84" d="M255.59,202.55l12.94,48.3a25,25,0,0,1,12.94,0l12.94-48.3a75.15,75.15,0,0,0-38.82,0Z"/><path class="cls-17" d="M299.15,268.53l48.3-12.94A74.91,74.91,0,0,0,328,222l-35.35,35.35A25.07,25.07,0,0,1,299.15,268.53Z"/><path class="cls-17" d="M299.15,268.53l48.3-12.94A74.91,74.91,0,0,0,328,222l-35.35,35.35A25.07,25.07,0,0,1,299.15,268.53Z"/><path class="cls-17" d="M299.15,268.53l48.3-12.94A74.91,74.91,0,0,0,328,222l-35.35,35.35A25.07,25.07,0,0,1,299.15,268.53Z"/><path class="cls-17" d="M299.15,268.53l48.3-12.94A74.91,74.91,0,0,0,328,222l-35.35,35.35A25.07,25.07,0,0,1,299.15,268.53Z"/><path class="cls-85" d="M299.15,268.53l48.3-12.94A74.91,74.91,0,0,0,328,222l-35.35,35.35A25.07,25.07,0,0,1,299.15,268.53Z"/><path class="cls-19" d="M292.68,257.32,328,222a74.91,74.91,0,0,0-33.62-19.42l-12.94,48.3A25.07,25.07,0,0,1,292.68,257.32Z"/><path class="cls-19" d="M292.68,257.32,328,222a74.91,74.91,0,0,0-33.62-19.42l-12.94,48.3A25.07,25.07,0,0,1,292.68,257.32Z"/><path class="cls-19" d="M292.68,257.32,328,222a74.91,74.91,0,0,0-33.62-19.42l-12.94,48.3A25.07,25.07,0,0,1,292.68,257.32Z"/><path class="cls-19" d="M292.68,257.32,328,222a74.91,74.91,0,0,0-33.62-19.42l-12.94,48.3A25.07,25.07,0,0,1,292.68,257.32Z"/><path class="cls-86" d="M292.68,257.32,328,222a74.91,74.91,0,0,0-33.62-19.42l-12.94,48.3A25.07,25.07,0,0,1,292.68,257.32Z"/><path class="cls-87" d="M281.47,299.15l12.94,48.3A74.91,74.91,0,0,0,328,328l-35.35-35.35A25.07,25.07,0,0,1,281.47,299.15Z"/><path class="cls-88" d="M281.47,299.15l12.94,48.3A74.91,74.91,0,0,0,328,328l-35.35-35.35A25.07,25.07,0,0,1,281.47,299.15Z"/><path class="cls-89" d="M281.47,299.15l12.94,48.3A74.91,74.91,0,0,0,328,328l-35.35-35.35A25.07,25.07,0,0,1,281.47,299.15Z"/><path class="cls-90" d="M281.47,299.15l12.94,48.3A74.91,74.91,0,0,0,328,328l-35.35-35.35A25.07,25.07,0,0,1,281.47,299.15Z"/><path class="cls-91" d="M281.47,299.15l12.94,48.3A74.91,74.91,0,0,0,328,328l-35.35-35.35A25.07,25.07,0,0,1,281.47,299.15Z"/><path class="cls-92" d="M292.68,292.68,328,328a74.91,74.91,0,0,0,19.42-33.62l-48.3-12.94A25.07,25.07,0,0,1,292.68,292.68Z"/><path class="cls-93" d="M292.68,292.68,328,328a74.91,74.91,0,0,0,19.42-33.62l-48.3-12.94A25.07,25.07,0,0,1,292.68,292.68Z"/><path class="cls-94" d="M292.68,292.68,328,328a74.91,74.91,0,0,0,19.42-33.62l-48.3-12.94A25.07,25.07,0,0,1,292.68,292.68Z"/><path class="cls-95" d="M292.68,292.68,328,328a74.91,74.91,0,0,0,19.42-33.62l-48.3-12.94A25.07,25.07,0,0,1,292.68,292.68Z"/><path class="cls-96" d="M292.68,292.68,328,328a74.91,74.91,0,0,0,19.42-33.62l-48.3-12.94A25.07,25.07,0,0,1,292.68,292.68Z"/><path class="cls-31" d="M300,275a25.06,25.06,0,0,1-.85,6.47l48.3,12.94a75.15,75.15,0,0,0,0-38.82l-48.3,12.94A25.06,25.06,0,0,1,300,275Z"/><path class="cls-31" d="M300,275a25.06,25.06,0,0,1-.85,6.47l48.3,12.94a75.15,75.15,0,0,0,0-38.82l-48.3,12.94A25.06,25.06,0,0,1,300,275Z"/><path class="cls-31" d="M300,275a25.06,25.06,0,0,1-.85,6.47l48.3,12.94a75.15,75.15,0,0,0,0-38.82l-48.3,12.94A25.06,25.06,0,0,1,300,275Z"/><path class="cls-31" d="M300,275a25.06,25.06,0,0,1-.85,6.47l48.3,12.94a75.15,75.15,0,0,0,0-38.82l-48.3,12.94A25.06,25.06,0,0,1,300,275Z"/><path class="cls-97" d="M300,275a25.06,25.06,0,0,1-.85,6.47l48.3,12.94a75.15,75.15,0,0,0,0-38.82l-48.3,12.94A25.06,25.06,0,0,1,300,275Z"/></svg>